<?xml version="1.0" encoding="utf-8"?><svg xml:space="preserve" viewBox="0 0 100 100" y="0" x="0" xmlns="http://www.w3.org/2000/svg" id="圖層_1" version="1.1" width="200px" height="200px" xmlns:xlink="http://www.w3.org/1999/xlink" style="width:100%;height:100%;background-size:initial;background-repeat-y:initial;background-repeat-x:initial;background-position-y:initial;background-position-x:initial;background-origin:initial;background-image:initial;background-color:rgb(241, 242, 243);background-clip:initial;background-attachment:initial;animation-play-state:paused" ><g class="ldl-scale" style="transform-origin:50% 50%;transform:rotate(0deg) scale(0.8, 0.8);animation-play-state:paused" ><path fill="#d1d1d1" d="M92.5 34.334l-.002-.112c-.023-.703-.344-1.802-1.253-2.553.035-.068.065-.133.092-.191.376-.847 1.011-3.085-1.221-5.554L77.412 11.869c-1.946-2.155-5.468-3.718-8.372-3.718H31.799c-2.904 0-6.425 1.564-8.373 3.718L10.723 25.923c-2.056 2.274-1.68 4.349-1.314 5.325-1.403.688-1.872 2.104-1.906 2.946a4.177 4.177 0 0 0-.003.159c0 6.225 5.064 11.289 11.289 11.289.168 0 .332-.008.496-.017a3.94 3.94 0 0 0-.101.952v15.148c0 .523.079 1.028.224 1.505-3.387.457-6.008 3.36-6.008 6.87v14.808a6.95 6.95 0 0 0 6.941 6.941h59.925a6.95 6.95 0 0 0 6.941-6.941V70.1c0-3.741-2.978-6.793-6.688-6.928.134-.46.21-.945.21-1.448V46.6c0-.22-.001-.546-.102-.977.193.012.386.02.585.02 6.224-.001 11.288-5.065 11.288-11.309zM33.656 45.611c.242.019.488.031.739.031 3.499 0 6.144-1.911 7.803-3.843 1.659 1.932 4.304 3.843 7.803 3.843 3.499 0 6.144-1.911 7.803-3.844 1.658 1.932 4.304 3.844 7.803 3.844.22 0 .437-.008.649-.022a3.946 3.946 0 0 0-.102.957v15.147c0 .499.075.979.206 1.435H33.555a5.19 5.19 0 0 0 .206-1.435V46.6c0-.222-.001-.552-.105-.989z" style="fill:rgb(29, 63, 114);animation-play-state:paused" ></path>
<path fill="#454545" d="M83.737 84.908a3.481 3.481 0 0 1-3.471 3.471H20.341a3.481 3.481 0 0 1-3.471-3.471V70.1a3.481 3.481 0 0 1 3.471-3.471h59.925a3.481 3.481 0 0 1 3.471 3.471v14.808zm3.804-56.658c1.28 1.416.765 2.575-1.144 2.575H14.441c-1.909 0-2.423-1.158-1.143-2.575l12.703-14.055c1.28-1.416 3.889-2.575 5.798-2.575H69.04c1.909 0 4.518 1.158 5.798 2.574L87.541 28.25zm-73.098 6.046c-1.909 0-3.471.017-3.472.038v.019c0 4.318 3.5 7.819 7.818 7.819 4.16 0 6.261-4.24 6.261-4.24.848-1.71 2.235-1.71 3.083 0 0 0 2.101 4.239 6.262 4.239s6.262-4.24 6.262-4.24c.848-1.71 2.234-1.71 3.082 0 0 0 2.101 4.24 6.262 4.24s6.262-4.241 6.262-4.241c.847-1.71 2.234-1.71 3.082 0 0 0 2.102 4.241 6.262 4.241s6.262-4.239 6.262-4.239c.848-1.71 2.234-1.71 3.083 0 0 0 2.101 4.239 6.261 4.239 4.318 0 7.818-3.5 7.818-7.818v-.019c-.001-.021-1.563-.038-3.472-.038H14.443zm60.092 9.088c-.619-.49-1.627-.495-2.236-.011-.61.483-2.676 2.25-2.676 3.204v15.147a1.74 1.74 0 0 0 1.735 1.735h4.165a1.74 1.74 0 0 0 1.735-1.735V46.6c.001-.955-2.103-2.726-2.723-3.216zm-46.968 0c-.62-.49-1.626-.495-2.236-.011-.61.483-2.676 2.25-2.676 3.204v15.147a1.74 1.74 0 0 0 1.735 1.735h4.165a1.74 1.74 0 0 0 1.735-1.735V46.6c0-.955-2.103-2.726-2.723-3.216z" style="fill:rgb(86, 153, 210);animation-play-state:paused" ></path>
<metadata xmlns:d="https://loading.io/stock/" style="animation-play-state:paused" ><d:name style="animation-play-state:paused" >marketplace</d:name>
<d:tags style="animation-play-state:paused" >stand,shop,store,sell,buy,tourist,stop,marketplace,map</d:tags>
<d:license style="animation-play-state:paused" >free</d:license>
<d:slug style="animation-play-state:paused" >lm2lrd</d:slug></metadata></g><!-- generated by https://loading.io/ --></svg>